HIERARCHY
ROOT Hips
{
    OFFSET   0.000000   0.000000   0.000000
    CHANNELS 6 Xposition Yposition Zposition Zrotation Xrotation Yrotation
    JOINT Chest
    {
        OFFSET   0.000000   8.007230   0.000000
        CHANNELS 3 Zrotation Xrotation Yrotation
        JOINT Chest2
        {
            OFFSET   0.000000  22.077100   0.000000
            CHANNELS 3 Zrotation Xrotation Yrotation
            JOINT Neck
            {
                OFFSET   0.000000  23.254700   0.000000
                CHANNELS 3 Zrotation Xrotation Yrotation
                JOINT Head
                {
                    OFFSET   0.000010  14.370000   1.956610
                    CHANNELS 3 Zrotation Xrotation Yrotation
                    End Site
                    {
                        OFFSET   0.000000  19.566000   0.000000
                    }
                }
            }
            JOINT LeftCollar
            {
                OFFSET   3.911900  19.017000  -0.467063
                CHANNELS 3 Zrotation Xrotation Yrotation
                JOINT LeftShoulder
                {
                    OFFSET  10.383700   0.000000   0.000000
                    CHANNELS 3 Zrotation Xrotation Yrotation
                    JOINT LeftElbow
                    {
                        OFFSET  26.662100   0.001671   0.000522
                        CHANNELS 3 Zrotation Xrotation Yrotation
                        JOINT LeftWrist
                        {
                            OFFSET  28.869000   0.000037  -0.000114
                            CHANNELS 3 Zrotation Xrotation Yrotation
                            JOINT LeftFinger0
                            {
                                OFFSET   2.044650  -2.323450   3.252850
                                CHANNELS 3 Zrotation Xrotation Yrotation
                                JOINT LeftFinger01
                                {
                                    OFFSET   3.088140   0.000000   0.000000
                                    CHANNELS 3 Zrotation Xrotation Yrotation
                                    JOINT LeftFinger02
                                    {
                                        OFFSET   2.639460   0.000000   0.000000
                                        CHANNELS 3 Zrotation Xrotation Yrotation
                                        End Site
                                        {
                                            OFFSET   2.582190   0.000000   0.000000
                                        }
                                    }
                                }
                            }
                            JOINT LeftFinger1
                            {
                                OFFSET   8.364480   0.000000   3.252850
                                CHANNELS 3 Zrotation Xrotation Yrotation
                                JOINT LeftFinger11
                                {
                                    OFFSET   4.646930   0.000000   0.000000
                                    CHANNELS 3 Zrotation Xrotation Yrotation
                                    JOINT LeftFinger12
                                    {
                                        OFFSET   2.323470   0.000000   0.000000
                                        CHANNELS 3 Zrotation Xrotation Yrotation
                                        End Site
                                        {
                                            OFFSET   2.273050   0.000000   0.000000
                                        }
                                    }
                                }
                            }
                            JOINT LeftFinger2
                            {
                                OFFSET   8.364490   0.000016   1.078090
                                CHANNELS 3 Zrotation Xrotation Yrotation
                                JOINT LeftFinger21
                                {
                                    OFFSET   5.111620   0.000000   0.000000
                                    CHANNELS 3 Zrotation Xrotation Yrotation
                                    JOINT LeftFinger22
                                    {
                                        OFFSET   2.788150   0.000013   0.000000
                                        CHANNELS 3 Zrotation Xrotation Yrotation
                                        End Site
                                        {
                                            OFFSET   2.727660   0.000000   0.000000
                                        }
                                    }
                                }
                            }
                            JOINT LeftFinger3
                            {
                                OFFSET   7.899780   0.000016  -1.078090
                                CHANNELS 3 Zrotation Xrotation Yrotation
                                JOINT LeftFinger31
                                {
                                    OFFSET   4.646930   0.000000   0.000000
                                    CHANNELS 3 Zrotation Xrotation Yrotation
                                    JOINT LeftFinger32
                                    {
                                        OFFSET   2.323470   0.000000   0.000000
                                        CHANNELS 3 Zrotation Xrotation Yrotation
                                        End Site
                                        {
                                            OFFSET   2.273050   0.000000   0.000000
                                        }
                                    }
                                }
                            }
                            JOINT LeftFinger4
                            {
                                OFFSET   7.435080   0.000000  -3.252850
                                CHANNELS 3 Zrotation Xrotation Yrotation
                                JOINT LeftFinger41
                                {
                                    OFFSET   3.717550   0.000000   0.000000
                                    CHANNELS 3 Zrotation Xrotation Yrotation
                                    JOINT LeftFinger42
                                    {
                                        OFFSET   1.858760   0.000000   0.000000
                                        CHANNELS 3 Zrotation Xrotation Yrotation
                                        End Site
                                        {
                                            OFFSET   1.818440   0.000000   0.000000
                                        }
                                    }
                                }
                            }
                        }
                    }
                }
            }
            JOINT RightCollar
            {
                OFFSET  -3.911900  19.017000  -0.467064
                CHANNELS 3 Zrotation Xrotation Yrotation
                JOINT RightShoulder
                {
                    OFFSET -10.383700   0.000000   0.000000
                    CHANNELS 3 Zrotation Xrotation Yrotation
                    JOINT RightElbow
                    {
                        OFFSET -26.662100   0.001633   0.000260
                        CHANNELS 3 Zrotation Xrotation Yrotation
                        JOINT RightWrist
                        {
                            OFFSET -28.869000  -0.000045  -0.000080
                            CHANNELS 3 Zrotation Xrotation Yrotation
                            JOINT RightFinger0
                            {
                                OFFSET  -2.044660  -2.323490   3.252850
                                CHANNELS 3 Zrotation Xrotation Yrotation
                                JOINT RightFinger01
                                {
                                    OFFSET  -3.088140   0.000000   0.000000
                                    CHANNELS 3 Zrotation Xrotation Yrotation
                                    JOINT RightFinger02
                                    {
                                        OFFSET  -2.639450   0.000000   0.000000
                                        CHANNELS 3 Zrotation Xrotation Yrotation
                                        End Site
                                        {
                                            OFFSET  -2.582190   0.000000   0.000000
                                        }
                                    }
                                }
                            }
                            JOINT RightFinger1
                            {
                                OFFSET  -8.364480   0.000000   3.252850
                                CHANNELS 3 Zrotation Xrotation Yrotation
                                JOINT RightFinger11
                                {
                                    OFFSET  -4.646920   0.000000   0.000000
                                    CHANNELS 3 Zrotation Xrotation Yrotation
                                    JOINT RightFinger12
                                    {
                                        OFFSET  -2.323470   0.000000   0.000000
                                        CHANNELS 3 Zrotation Xrotation Yrotation
                                        End Site
                                        {
                                            OFFSET  -2.273050   0.000000   0.000000
                                        }
                                    }
                                }
                            }
                            JOINT RightFinger2
                            {
                                OFFSET  -8.364480   0.000000   1.078090
                                CHANNELS 3 Zrotation Xrotation Yrotation
                                JOINT RightFinger21
                                {
                                    OFFSET  -5.111610   0.000000   0.000000
                                    CHANNELS 3 Zrotation Xrotation Yrotation
                                    JOINT RightFinger22
                                    {
                                        OFFSET  -2.788160   0.000000   0.000000
                                        CHANNELS 3 Zrotation Xrotation Yrotation
                                        End Site
                                        {
                                            OFFSET  -2.727660   0.000000   0.000000
                                        }
                                    }
                                }
                            }
                            JOINT RightFinger3
                            {
                                OFFSET  -7.899780   0.000000  -1.078090
                                CHANNELS 3 Zrotation Xrotation Yrotation
                                JOINT RightFinger31
                                {
                                    OFFSET  -4.646930   0.000000   0.000000
                                    CHANNELS 3 Zrotation Xrotation Yrotation
                                    JOINT RightFinger32
                                    {
                                        OFFSET  -2.323470   0.000000   0.000000
                                        CHANNELS 3 Zrotation Xrotation Yrotation
                                        End Site
                                        {
                                            OFFSET  -2.273050   0.000000   0.000000
                                        }
                                    }
                                }
                            }
                            JOINT RightFinger4
                            {
                                OFFSET  -7.435090   0.000000  -3.252850
                                CHANNELS 3 Zrotation Xrotation Yrotation
                                JOINT RightFinger41
                                {
                                    OFFSET  -3.717550   0.000000   0.000000
                                    CHANNELS 3 Zrotation Xrotation Yrotation
                                    JOINT RightFinger42
                                    {
                                        OFFSET  -1.858760   0.000000   0.000000
                                        CHANNELS 3 Zrotation Xrotation Yrotation
                                        End Site
                                        {
                                            OFFSET  -1.818440   0.000000   0.000000
                                        }
                                    }
                                }
                            }
                        }
                    }
                }
            }
        }
    }
    JOINT LeftHip
    {
        OFFSET   9.782990   0.000000   0.000000
        CHANNELS 3 Zrotation Xrotation Yrotation
        JOINT LeftKnee
        {
            OFFSET  -0.000063 -41.789100   0.001657
            CHANNELS 3 Zrotation Xrotation Yrotation
            JOINT LeftAnkle
            {
                OFFSET   0.000078 -41.133200  -0.000113
                CHANNELS 3 Zrotation Xrotation Yrotation
                JOINT LeftToe
                {
                    OFFSET   0.000000  -6.358970  14.674500
                    CHANNELS 3 Zrotation Xrotation Yrotation
                    End Site
                    {
                        OFFSET   0.000000   0.000000   3.913200
                    }
                }
            }
        }
    }
    JOINT RightHip
    {
        OFFSET  -9.782990   0.000000   0.000000
        CHANNELS 3 Zrotation Xrotation Yrotation
        JOINT RightKnee
        {
            OFFSET   0.000053 -41.789200   0.000277
            CHANNELS 3 Zrotation Xrotation Yrotation
            JOINT RightAnkle
            {
                OFFSET   0.000030 -41.133200  -0.000150
                CHANNELS 3 Zrotation Xrotation Yrotation
                JOINT RightToe
                {
                    OFFSET   0.000000  -6.358960  14.674500
                    CHANNELS 3 Zrotation Xrotation Yrotation
                    End Site
                    {
                        OFFSET   0.000000   0.000000   3.913200
                    }
                }
            }
        }
    }
}
MOTION
Frames: 4
Frame Time:   0.016667
 -0.976546  89.313800  -1.112840  -9.573220  -9.429780 -23.132300  -2.115080   5.314110  -1.052680  -4.158450  10.662900  -1.919240   4.522700  -3.581930   0.283270   7.502660  -7.121130  -6.970000   1.023600   4.445840  -2.795550 -73.213300  15.873900  -0.909536  -1.614280  -7.899770 -17.957400  11.280500  -6.970140   0.996317  37.942800  27.807000 -57.102100 -30.024600   0.000000   0.000084 -10.012300   0.002150  -0.000000 -29.513400   4.564940  -8.002850 -24.410600   0.005897   0.001581 -17.087400  -0.002825   0.009108 -28.259300  -2.135040   3.965150 -34.503500   0.000000   0.000000 -22.979300  -0.005237   0.000073 -28.534800  -2.154030   3.954870 -37.527400  -0.005777  -0.001177 -24.993300  -0.004576  -0.000328 -29.576800  -2.226160   3.914700 -44.481400   0.000438  -0.001553 -29.624600   0.000959   0.000154  -0.806562  -7.959390  -1.227270  -0.487237 -35.924400  52.799600 -28.033800  -2.903430  15.222100 -26.742000 -24.840200  -1.836240 -23.126900  39.224200  63.026000  67.909900  -0.000392   0.000677  38.568100  -0.000237  -0.001227   2.156200   0.522795  13.614700   1.814880   0.001041  -0.004784   1.270440  -0.000215  -0.004425  89.000000  -0.002021   0.000057  92.419800   0.000181  -0.000344  69.314800   0.000091  -0.006499  88.996300  -5.001070  -0.086837  91.142200  -0.000312  -0.000172  68.356600  -0.000677  -0.006432  88.983700  -9.993590  -0.181611 110.000000  -0.007605   0.000193  79.999900   0.001889  -0.001144   4.244120  17.370500   6.389660   0.839988   0.086581  17.487900  -0.466378  -5.543530   7.847280   0.000000   0.000000  -0.000000   7.003130   9.299360   0.810199  -1.237930   3.893420   1.023900  -0.218431  -0.682643  13.122100  -0.000000   0.000000   0.000000
 -0.940170  89.327300  -1.091530  -9.558540  -9.492140 -22.892400  -2.081380   5.295830  -1.028900  -4.093030  10.625000  -1.875160   4.721760  -3.308070   0.273015   7.819310  -6.564550  -4.071280   1.015890   4.402630  -2.808600 -73.188100  15.933700  -1.005590  -1.547690  -7.853430 -17.924900  11.245100  -6.938020   1.038620  37.923800  27.844600 -57.128400 -30.104600   0.000000   0.000108 -10.052300   0.002081   0.000000 -29.460100   4.550270  -7.994380 -24.364200   0.006093   0.001576 -17.054900  -0.002757   0.009456 -28.264100  -2.177660   4.043170 -34.572800   0.000000  -0.000000 -23.025500  -0.005256   0.000063 -28.529900  -2.196400   4.033140 -37.506000  -0.005781  -0.001180 -24.979000  -0.004577  -0.000324 -29.523900  -2.266060   3.994530 -44.405000   0.000430  -0.001549 -29.573700   0.000959   0.000154  -0.758284  -7.940360  -1.255550  -0.419298 -36.017500  52.891200 -27.874700  -2.922680  14.953600 -26.081400 -24.655900  -1.556320 -23.391100  39.725300  63.405700  67.520100  -0.000315   0.000635  38.308500  -0.000183  -0.001253   2.008000   0.493982  13.813500   1.692050   0.001025  -0.004835   1.184430  -0.000109  -0.004443  89.000000  -0.001999   0.000111  92.194100   0.000282  -0.000444  69.145500   0.000000  -0.006422  88.996300  -5.001040  -0.086855  90.919100  -0.000209  -0.000235  68.189300  -0.000833  -0.006303  88.983700  -9.993340  -0.181723 110.000000  -0.007728   0.000168  79.999900   0.001905  -0.001202   4.221030  17.399600   6.366220   0.857333   0.049684  17.412100  -0.460936  -5.518560   7.711420   0.000000   0.000000   0.000000   6.996340   9.346440   0.841112  -1.254180   3.928370   0.937103  -0.206634  -0.745551  12.911000   0.000000   0.000000   0.000000
 -0.901935  89.337500  -1.073080  -9.515750  -9.571670 -22.608100  -2.051230   5.281020  -1.002370  -4.034980  10.594800  -1.825030   4.886250  -3.045050   0.260150   8.081980  -6.035750  -1.495410   1.011190   4.365010  -2.778060 -73.180100  15.929500  -1.107130  -1.475530  -7.779860 -17.898200  11.299300  -6.989140   1.075810  37.913900  27.854700 -57.091200 -30.164900   0.000000   0.000107 -10.082500   0.002010  -0.000000 -29.435800   4.529770  -7.968030 -24.342900   0.006179   0.001571 -17.040100  -0.002715   0.009906 -28.264900  -2.215930   4.113410 -34.596700  -0.000902   0.000000 -23.041400  -0.005268   0.000028 -28.529300  -2.234820   4.103340 -37.536600  -0.005777  -0.001177 -24.999400  -0.004578  -0.000322 -29.503000  -2.303840   4.065210 -44.375700   0.000430  -0.001550 -29.554300   0.000958   0.000155  -0.727513  -7.914470  -1.279950  -0.340328 -36.017000  52.880900 -27.920500  -2.793750  14.824600 -25.722200 -24.198500  -1.443710 -23.368400  39.603200  63.356500  67.358400  -0.000225   0.000495  38.200700  -0.000096  -0.001279   2.007110   0.494584  13.898400   1.691040   0.000990  -0.004874   1.183720  -0.000012  -0.004481  89.000000  -0.001981   0.000162  92.062000   0.000394  -0.000550  69.046500  -0.000060  -0.006341  88.996300  -5.001010  -0.086886  90.785200  -0.000084  -0.000315  68.088900  -0.000975  -0.006178  88.983700  -9.993090  -0.181823 110.000000  -0.007847   0.000152  79.999900   0.001913  -0.001246   4.187560  17.406300   6.334240   0.861500   0.018278  17.306600  -0.446921  -5.487320   7.568880  -0.000000   0.000000   0.000000   6.976370   9.397090   0.882354  -1.277580   3.955910   0.869061  -0.211496  -0.815252  12.608800   0.000000   0.000000   0.000000
 -0.862296  89.348000  -1.063970  -9.449390  -9.658760 -22.287100  -2.023160   5.272870  -0.973027  -3.981310  10.576300  -1.768890   5.021960  -2.805510   0.246410   8.304960  -5.558530   0.789536   1.006230   4.321160  -2.747490 -73.171500  15.903500  -1.200880  -1.410420  -7.693800 -17.871000  11.411300  -7.110650   1.116770  37.899500  27.849700 -56.948800 -30.197200   0.000000   0.000098 -10.098600   0.001932   0.000000 -29.431100   4.508760  -7.931900 -24.336100   0.006415   0.001568 -17.035300  -0.002576   0.010180 -28.262000  -2.255110   4.186680 -34.602000  -0.001803   0.000000 -23.044900  -0.005275  -0.000000 -28.531800  -2.274920   4.176080 -37.615500  -0.005772  -0.001174 -25.052000  -0.004580  -0.000321 -29.494900  -2.344990   4.137370 -44.369700   0.000430  -0.001553 -29.550300   0.000956   0.000156  -0.688650  -7.884400  -1.307540  -0.200868 -35.999300  52.832100 -27.988700  -2.663480  14.791400 -25.476100 -23.701600  -1.365970 -23.327300  39.396900  63.271500  67.322100  -0.000127   0.000338  38.176500   0.000000  -0.001311   2.005320   0.499899  13.973700   1.690900   0.000942  -0.004910   1.183620   0.000074  -0.004528  89.000000  -0.001963   0.000206  92.012800   0.000511  -0.000661  69.009600  -0.000120  -0.006259  88.996300  -5.000980  -0.086930  90.733400   0.000061  -0.000405  68.050100  -0.001116  -0.006051  88.983600  -9.992840  -0.181915 110.000000  -0.007964   0.000135  79.999900   0.001920  -0.001284   4.148380  17.408500   6.290650   0.857935   0.000523  17.169300  -0.425813  -5.456490   7.432720  -0.000000   0.000000   0.000000   6.944040   9.449340   0.931940  -1.300880   3.976800   0.785676  -0.224994  -0.885070  12.273900  -0.000000   0.000000   0.000000
